# xmcd CD database file
#
# Track frame offsets:
#	150
#	13773
#	33463
#	49213
#	61070
#	71374
#	84429
#	96230
#	106487
#	129140
#	148235
#	162328
#	224981
#	238580
#	252628
#	267181
#	277714
#	288231
#	302404
#	308161
#
# Disc length: 4392 seconds
#
# Revision: 0
# Processed by: cddbd v1.5PL3 Copyright (c) Steve Scherf et al.
# Submitted via: CDex 1.51
#
DISCID=21112614
DTITLE=Benny Goodman - Swing
DYEAR=1900
DGENRE=Jazz
TTITLE0=Bugle Call Rag
TTITLE1=Don't Be That Way
TTITLE2=In The Mood
TTITLE3=It's Only A Paper Moon
TTITLE4=Eleventh Track
TTITLE5=King Porter Stomp
TTITLE6=Lets Dance
TTITLE7=Life Go
TTITLE8=Sing Sing Sing with a Swing
TTITLE9=Sweet Georgia Brown
TTITLE10=Swingtime in the Rockies
TTITLE11=Honeysuckle Rose
TTITLE12=Temptation
TTITLE13=Goodnight my Love
TTITLE14=Frankie and Johnny
TTITLE15=Traffic Jam
TTITLE16=Scareface/ The Diary
TTITLE17=Tito Puente/ Cuban Mambo
TTITLE18=Tito Punete Senor Burns
TTITLE19=Best of Salsa/ Merengue
EXTD=
EXTT0=
EXTT1=
EXTT2=
EXTT3=
EXTT4=
EXTT5=
EXTT6=
EXTT7=
EXTT8=
EXTT9=
EXTT10=
EXTT11=
EXTT12=
EXTT13=
EXTT14=
EXTT15=
EXTT16=
EXTT17=
EXTT18=
EXTT19=
PLAYORDER=
